<!-- sample rectangle -->
<svg aria-hidden="true" role="presentation" focusable="false" style="display: block; height: auto; width: 100%;" width="215" height="18" viewBox="0 0 215 18" fill="none" xmlns="http://www.w3.org/2000/svg">
<path fill-rule="evenodd" clip-rule="evenodd" d="M201.704 15.6945C203.525 17.1401 205.792 17.9061 208.116 17.8607V17.8868C211.518 17.8868 214.71 16.286 214.71 12.606C214.71 9.63939 212.901 7.95162 208.69 6.95115C206.246 6.35086 205.584 5.61138 205.584 4.6109C205.584 3.38423 206.672 2.64474 208.412 2.64474C210.079 2.70808 211.7 3.2124 213.11 4.10631L213.893 1.67907C212.297 0.584331 210.408 -0.00109531 208.473 1.53846e-06C204.584 1.53846e-06 202.235 2.02706 202.235 4.81969C202.235 7.23824 203.749 9.1696 207.542 10.0396C210.465 10.7791 211.335 11.388 211.335 12.8931C211.335 14.3982 209.943 15.2682 208.142 15.2682C206.062 15.2187 204.076 14.3932 202.574 12.954L201.704 15.6945ZM113.932 15.6945C115.753 17.1401 118.02 17.9061 120.344 17.8607L120.336 17.8868C123.737 17.8868 126.93 16.2861 126.93 12.6061C126.93 9.63942 125.129 7.95166 120.91 6.95118C118.474 6.3509 117.813 5.61141 117.813 4.61094C117.813 3.38426 118.9 2.64478 120.64 2.64478C122.308 2.70646 123.929 3.21091 125.338 4.10635L126.121 1.6791C124.527 0.580361 122.636 -0.00546195 120.701 3.99399e-05C116.821 3.99399e-05 114.472 2.02709 114.472 4.81973C114.472 7.23828 115.977 9.16963 119.77 10.0396C122.693 10.7791 123.563 11.3881 123.563 12.8932C123.563 14.3982 122.18 15.2682 120.37 15.2682C118.291 15.2146 116.307 14.3897 114.802 12.9541L113.932 15.6945ZM0 9.61341C0 15.3901 3.55822 18 8.31702 18V17.9913C13.1106 17.9913 16.5905 15.3988 16.5905 9.60471V0.391617H13.0062V9.49162C13.0062 13.2064 11.3184 15.0073 8.36921 15.0073C5.41998 15.0073 3.74092 13.2064 3.74092 9.49162V0.391617H0V9.61341ZM31.6153 8.23884H28.7878V2.91456H31.6153C33.9033 2.91456 34.7211 4.15863 34.7211 5.6289C34.7211 7.09917 33.9033 8.23884 31.6153 8.23884ZM34.8407 16.8714C35.7768 17.4767 36.8787 17.774 37.9922 17.7216L37.9661 17.7564C38.6907 17.7449 39.4104 17.6367 40.1063 17.4345V15.2074C39.774 15.3095 39.4272 15.3565 39.0797 15.3466C37.8095 15.3466 36.9396 14.8594 36.0696 13.3456L34.3296 10.4051C35.4685 10.2195 36.5006 9.62494 37.2325 8.73289C37.9644 7.84083 38.3459 6.71248 38.3054 5.5593C38.3054 2.78406 36.4959 0.391617 32.2156 0.391617H25.1165V17.5215H28.7878V10.6922H30.841L32.7724 14.3461C33.1814 15.3831 33.9047 16.266 34.8407 16.8714ZM53.7736 9.69171H50.7635V15.0943H53.7736C56.0616 15.0943 56.9664 13.9198 56.9664 12.3799C56.9664 10.8401 56.0964 9.69171 53.7736 9.69171ZM50.7635 7.26446H53.5039C55.3396 7.26446 56.1138 6.29879 56.1138 5.04601C56.1138 3.79324 55.357 2.81886 53.5039 2.81886H50.7635V7.26446ZM54.4087 17.5215H47.0921V0.391617H54.1042C57.993 0.391617 59.559 2.41867 59.559 4.87202C59.5158 5.54349 59.3192 6.19613 58.9844 6.77978C58.6496 7.36344 58.1854 7.86257 57.6276 8.23884C58.476 8.58348 59.2037 9.17117 59.7191 9.92808C60.2346 10.685 60.5148 11.5774 60.5246 12.493C60.5246 15.2596 58.7412 17.5215 54.4348 17.5215H54.4087ZM77.9245 10.8662L75.2711 4.64582L72.5915 10.8662H77.9245ZM66.2146 17.5215L73.8878 0.391617H76.75L84.3885 17.5215H80.7171L78.8815 13.2934H71.5997L69.7641 17.5215H66.2146ZM103.214 0.391617V11.7014L93.7577 0.391617H91.1999V17.5215H94.4797V6.21179L103.936 17.5215H106.494V0.391617H103.214ZM132.21 0.391617V3.10596H138.317V17.5215H141.989V3.10596H148.105V0.391617H132.21ZM154.943 17.5215V0.391617H166.714V3.10596H158.614V7.12527H165.209V9.83961H158.614V14.8072H166.714V17.5215H154.943ZM190.917 17.5215V6.99477C190.917 6.59458 191.013 5.481 191.039 5.36791L190.378 6.99477L185.532 17.5215H183.279L178.424 6.99477C178.25 6.59458 177.859 5.5419 177.798 5.36791C177.798 5.39539 177.806 5.52798 177.818 5.70913L177.819 5.7126C177.844 6.10494 177.885 6.72183 177.885 6.99477V17.5215H174.666V0.391617H178.581L184.54 12.9193L190.473 0.391617H194.266V17.5215H190.917Z" fill="#1E2934"></path>
</svg>